PathFileType	4	(X/Y/Z)	TVC_36_BWA_02_walk_RCNL2025.trc
DataRate	CameraRate	NumFrames	NumMarkers	Units	OrigDataRate	OrigDataStartFrame	OrigNumFrames
100	100	8	27	mm	100	244	487
Frame#	Time	R_Shoulder			L_Shoulder			C7			J_Notch			R_Elbow			L_Elbow			R_Wrist			L_Wrist			R_Asis			L_Asis			R_Psis			L_Psis			Sacral			Thoracic			Sternum			R_Thigh_Lateral			R_Knee_Lateral			R_Shank_Lateral			R_Ankle_Lateral			R_Heel			R_Toe			L_Thigh_Lateral			L_Knee_Lateral			L_Shank_Lateral			L_Ankle_Lateral			L_Heel			L_Toe		
		X1	Y1	Z1	X2	Y2	Z2	X3	Y3	Z3	X4	Y4	Z4	X5	Y5	Z5	X6	Y6	Z6	X7	Y7	Z7	X8	Y8	Z8	X9	Y9	Z9	X10	Y10	Z10	X11	Y11	Z11	X12	Y12	Z12	X13	Y13	Z13	X14	Y14	Z14	X15	Y15	Z15	X16	Y16	Z16	X17	Y17	Z17	X18	Y18	Z18	X19	Y19	Z19	X20	Y20	Z20	X21	Y21	Z21	X22	Y22	Z22	X23	Y23	Z23	X24	Y24	Z24	X25	Y25	Z25	X26	Y26	Z26	X27	Y27	Z27
244	2.43000000	593.296021	1398.475464	642.284546	492.452606	1381.975586	306.727875	506.916931	1442.187378	488.359711	660.091614	1322.323242	451.456543	570.200989	1130.306763	775.768433	474.570312	1093.337524	191.836639	724.526001	967.054565	793.348969	650.392578	990.311890	267.063591	620.023132	900.099609	579.052795	540.529907	912.422485	337.163116	444.804626	941.783875	563.428162	413.389404	937.375183	485.450195	429.097015	939.579529	524.439178	461.249023	1157.666260	508.769775	691.751221	1168.870850	427.690521	611.951660	637.873779	665.641479	623.496338	464.090607	575.148560	584.350220	264.081390	629.208252	566.781921	72.800949	560.848145	519.489319	57.109715	511.881104	690.028137	43.717247	530.119690	486.030334	677.703186	249.010300	501.702515	476.524384	297.731995	396.995148	295.046295	265.602600	406.203979	79.178490	309.108551	369.581635	66.534416	362.549500	532.758057	46.898342	311.790771
245	2.44000000	595.172913	1398.686768	642.987793	495.174530	1381.528809	307.286224	509.193054	1442.102051	488.891541	662.756592	1322.585205	452.412903	571.921875	1131.427246	777.629395	476.662659	1092.408203	193.725754	726.641418	968.769012	797.854126	651.884613	988.411530	269.138077	623.279663	900.205933	580.213135	543.960083	912.118591	338.326691	448.022278	941.729004	564.471863	416.641052	937.233337	486.505981	432.331665	939.481171	525.488922	464.363739	1157.978638	510.200653	694.777405	1169.109985	428.973328	613.968140	637.561584	666.354065	625.143311	463.842957	575.545166	585.548279	263.790680	629.327576	566.910156	72.762161	560.708130	519.524048	57.190022	511.847504	690.073425	43.729733	529.945129	488.558411	677.546997	250.067993	503.696777	476.341827	298.700470	398.222931	295.242798	266.689056	406.576874	79.514122	310.028625	370.154510	66.856522	363.678497	532.999634	46.811096	311.968689
246	2.45000000	597.048523	1398.901978	643.650940	497.891296	1381.064453	307.813507	511.433197	1441.994995	489.406464	665.393494	1322.816284	453.344574	573.539795	1132.595825	779.504639	478.692352	1091.490234	195.558182	728.501373	970.423737	802.433319	653.339844	986.525116	271.083603	626.345459	900.229309	581.315063	547.289062	911.848083	339.480896	451.165497	941.651611	565.500732	419.804565	937.091675	487.545349	435.485031	939.371643	526.523041	467.416809	1158.247437	511.609894	697.741760	1169.304565	430.237000	615.990540	637.223083	667.023682	626.825500	463.592041	575.907349	586.781555	263.517303	629.435852	567.047974	72.723099	560.580627	519.559753	57.274166	511.819061	690.124084	43.741295	529.767090	491.219788	677.416382	251.137482	505.745972	476.195435	299.625946	399.483917	295.466339	267.694916	406.971985	79.890823	310.889587	370.686310	67.213570	364.720428	533.250610	46.738304	312.156311
247	2.46000000	598.932373	1399.118286	644.277832	500.591980	1380.587891	308.319733	513.641785	1441.867554	489.911987	668.000549	1323.013550	454.249908	575.065613	1133.805664	781.397644	480.663605	1090.591064	197.327362	730.118927	972.018555	807.092957	654.772461	984.684845	272.904007	629.246399	900.188232	582.366882	550.499207	911.616333	340.628540	454.228607	941.552734	566.526428	422.874329	936.946777	488.578949	438.551468	939.249756	527.552689	470.405090	1158.471680	512.990295	700.641479	1169.453247	431.475647	618.062988	636.868408	667.648193	628.545898	463.338959	576.230042	588.050415	263.261993	629.536438	567.196228	72.685318	560.467224	519.597229	57.361748	511.798370	690.181519	43.753040	529.583313	494.009979	677.316223	252.207504	507.878174	476.085388	300.487701	400.795074	295.726685	268.611206	407.397156	80.310692	311.695709	371.182220	67.620140	365.676422	533.514038	46.681160	312.351654
248	2.47000000	600.830200	1399.330566	644.873291	503.261993	1380.104614	308.815186	515.823853	1441.720703	490.415161	670.575378	1323.177124	455.126678	576.508423	1135.045410	783.308350	482.582764	1089.717651	199.026947	731.506287	973.553375	811.841003	656.197388	982.920349	274.603409	632.041443	900.114197	583.388245	553.575195	911.428894	341.774109	457.207947	941.433777	567.562378	425.846497	936.795715	489.619568	441.527222	939.114746	528.590973	473.327850	1158.654663	514.333374	703.476196	1169.559082	432.682098	620.226929	636.506226	668.226257	630.305115	463.084717	576.508484	589.352600	263.024902	629.632385	567.354187	72.649529	560.367737	519.636353	57.451950	511.788330	690.245911	43.765923	529.391724	496.910278	677.254639	253.261658	510.116669	476.012512	301.262634	402.171692	296.034393	269.425873	407.853455	80.776138	312.445190	371.651154	68.093048	366.543488	533.791443	46.640907	312.550964
249	2.48000000	602.743286	1399.531982	645.442810	505.884186	1379.620239	309.309326	517.984009	1441.556274	490.921875	673.114990	1323.309692	455.972137	577.875122	1136.299194	785.232910	484.457642	1088.876709	200.650955	732.674225	975.029205	816.686340	657.630066	981.257324	276.185822	634.813660	900.047607	584.407288	556.503967	911.291016	342.923920	460.102386	941.296875	568.623413	428.718933	936.636292	490.682190	444.410660	938.966583	529.652802	476.186646	1158.803711	515.630005	706.247986	1169.629272	433.848267	622.516785	636.143921	668.757996	632.099854	462.830231	576.739563	590.683228	262.805511	629.726562	567.519653	72.615547	560.280945	519.676392	57.543545	511.792328	690.316223	43.780499	529.190979	499.891785	677.243042	254.280380	512.479919	475.979095	301.925659	403.627655	296.401062	270.123810	408.334198	81.291237	313.128784	372.103943	68.651222	367.313080	534.082397	46.618652	312.749176
250	2.49000000	604.668396	1399.714600	645.991516	508.440735	1379.140747	309.809753	520.125244	1441.376831	491.436554	675.616272	1323.416870	456.783142	579.170776	1137.548340	787.163330	486.296997	1088.074097	202.194031	733.632629	976.449524	821.638031	659.085114	979.716736	277.654922	637.656494	900.032471	585.455933	559.275391	911.208008	344.085419	462.913727	941.144958	569.725464	431.491180	936.467346	491.783691	447.202454	938.806152	530.754578	478.984650	1158.929077	516.871338	708.960571	1169.674316	434.965790	624.956421	635.787170	669.245422	633.921753	462.576080	576.923096	592.035767	262.602600	629.822327	567.689514	72.582535	560.205505	519.715637	57.634968	511.814301	690.389954	43.796844	528.981018	502.919983	677.295593	255.243225	514.981873	475.989807	302.450256	405.175598	296.839355	270.687134	408.826324	81.862419	313.728607	372.550690	69.315125	367.969604	534.384460	46.615089	312.939941
251	2.50000000	606.597778	1399.870239	646.524109	510.915131	1378.672485	310.321472	522.248474	1441.185669	491.961334	678.075500	1323.506958	457.556549	580.398804	1138.772583	789.087524	488.110199	1087.315796	203.651703	734.391693	977.821930	826.704681	660.576202	978.314209	279.013931	640.656433	900.109009	586.564270	561.882751	911.185059	345.266571	465.646515	940.981567	570.885315	434.164490	936.289001	492.942505	449.905502	938.635284	531.913910	481.725647	1159.043091	518.050354	711.618530	1169.707275	436.026459	627.556030	635.440002	669.692871	635.756897	462.322693	577.062622	593.402344	262.414093	629.923889	567.860474	72.549171	560.140869	519.752075	57.724449	511.858978	690.463562	43.814667	528.763184	505.958588	677.428467	256.131348	517.632080	476.052063	302.808868	406.826996	297.362976	271.095062	409.314392	82.498573	314.218903	372.997894	70.106049	368.489838	534.693298	46.630123	313.116058
